<?xml version="1.0" encoding="UTF-8" standalone="no"?><svg xmlns="http://www.w3.org/2000/svg" xmlns:xlink="http://www.w3.org/1999/xlink" contentScriptType="application/ecmascript" contentStyleType="text/css" height="237px" preserveAspectRatio="none" style="width:249px;height:237px;" version="1.1" viewBox="0 0 249 237" width="249px" zoomAndPan="magnify"><defs><filter height="300%" id="f5msbglu5g4fo" width="300%" x="-1" y="-1"><feGaussianBlur result="blurOut" stdDeviation="2.0"/><feColorMatrix in="blurOut" result="blurOut2" type="matrix" values="0 0 0 0 0 0 0 0 0 0 0 0 0 0 0 0 0 0 .4 0"/><feOffset dx="4.0" dy="4.0" in="blurOut2" result="blurOut3"/><feBlend in="SourceGraphic" in2="blurOut3" mode="normal"/></filter></defs><g><!--entity Kafka--><path d="M99.25,104 L149.25,104 C154.25,104 154.25,117.1484 154.25,117.1484 C154.25,117.1484 154.25,130.2969 149.25,130.2969 L99.25,130.2969 C94.25,130.2969 94.25,117.1484 94.25,117.1484 C94.25,117.1484 94.25,104 99.25,104 " fill="#FEFECE" filter="url(#f5msbglu5g4fo)" style="stroke: #A80036; stroke-width: 1.5;"/><path d="M149.25,104 C144.25,104 144.25,117.1484 144.25,117.1484 C144.25,130.2969 149.25,130.2969 149.25,130.2969 " fill="none" style="stroke: #A80036; stroke-width: 1.5;"/><text fill="#000000" font-family="sans-serif" font-size="14" lengthAdjust="spacingAndGlyphs" textLength="40" x="99.25" y="121.9951">Kafka</text><!--entity Product1--><rect fill="#FEFECE" filter="url(#f5msbglu5g4fo)" height="36.2969" style="stroke: #A80036; stroke-width: 1.5;" width="83" x="37" y="8"/><rect fill="#FEFECE" height="5" style="stroke: #A80036; stroke-width: 1.5;" width="10" x="32" y="13"/><rect fill="#FEFECE" height="5" style="stroke: #A80036; stroke-width: 1.5;" width="10" x="32" y="34.2969"/><text fill="#000000" font-family="sans-serif" font-size="14" lengthAdjust="spacingAndGlyphs" textLength="63" x="47" y="30.9951">Product1</text><path d="M6,104.5 L6,129.6328 A0,0 0 0 0 6,129.6328 L59,129.6328 A0,0 0 0 0 59,129.6328 L59,114.5 L49,104.5 L42.3051,104.5 L69.3807,44.16 L34.3051,104.5 L6,104.5 A0,0 0 0 0 6,104.5 " fill="#FBFB77" filter="url(#f5msbglu5g4fo)" style="stroke: #A80036; stroke-width: 1.0;"/><path d="M49,104.5 L49,114.5 L59,114.5 L49,104.5 " fill="#FBFB77" style="stroke: #A80036; stroke-width: 1.0;"/><text fill="#000000" font-family="sans-serif" font-size="13" lengthAdjust="spacingAndGlyphs" textLength="32" x="12" y="121.5669">JSON</text><!--entity Product2--><rect fill="#FEFECE" filter="url(#f5msbglu5g4fo)" height="36.2969" style="stroke: #A80036; stroke-width: 1.5;" width="83" x="127" y="190"/><rect fill="#FEFECE" height="5" style="stroke: #A80036; stroke-width: 1.5;" width="10" x="122" y="195"/><rect fill="#FEFECE" height="5" style="stroke: #A80036; stroke-width: 1.5;" width="10" x="122" y="216.2969"/><text fill="#000000" font-family="sans-serif" font-size="14" lengthAdjust="spacingAndGlyphs" textLength="63" x="137" y="212.9951">Product2</text><path d="M189.25,104.5 L189.25,129.6328 A0,0 0 0 0 189.25,129.6328 L203.367,129.6328 L176.911,189.8695 L211.367,129.6328 L237.25,129.6328 A0,0 0 0 0 237.25,129.6328 L237.25,114.5 L227.25,104.5 L189.25,104.5 A0,0 0 0 0 189.25,104.5 " fill="#FBFB77" filter="url(#f5msbglu5g4fo)" style="stroke: #A80036; stroke-width: 1.0;"/><path d="M227.25,104.5 L227.25,114.5 L237.25,114.5 L227.25,104.5 " fill="#FBFB77" style="stroke: #A80036; stroke-width: 1.0;"/><text fill="#000000" font-family="sans-serif" font-size="13" lengthAdjust="spacingAndGlyphs" textLength="27" x="195.25" y="121.5669">XML</text><!--link Product1 to Kafka--><path d="M87.1193,44.16 C95.3056,59.999 107.391,83.382 115.53,99.129 " fill="none" id="Product1-Kafka" style="stroke: #A80036; stroke-width: 1.0;"/><polygon fill="#A80036" points="117.92,103.753,117.3408,93.9212,115.6241,99.3113,110.234,97.5946,117.92,103.753" style="stroke: #A80036; stroke-width: 1.0;"/><!--link Kafka to Product2--><path d="M130.184,130.0029 C137.131,144.0549 148.778,167.6125 157.362,184.9775 " fill="none" id="Kafka-Product2" style="stroke: #A80036; stroke-width: 1.0;"/><polygon fill="#A80036" points="159.696,189.698,159.2923,179.8574,157.4797,185.216,152.1211,183.4035,159.696,189.698" style="stroke: #A80036; stroke-width: 1.0;"/><!--
@startuml

queue Kafka

component Product1
note right of Product1
    JSON
end note

component Product2
note left of Product2
    XML
end note

Product1 -> Kafka
Kafka -> Product2

@enduml

PlantUML version 1.2019.01(Sat Feb 09 18:32:04 MSK 2019)
(GPL source distribution)
Java Runtime: OpenJDK Runtime Environment
JVM: OpenJDK 64-Bit Server VM
Java Version: 1.8.0_191-b12
Operating System: Linux
OS Version: 3.10.0-957.1.3.el7.x86_64
Default Encoding: UTF-8
Language: en
Country: US
--></g></svg>