<?xml version="1.0" encoding="UTF-8" standalone="no"?><svg xmlns="http://www.w3.org/2000/svg" xmlns:xlink="http://www.w3.org/1999/xlink" contentScriptType="application/ecmascript" contentStyleType="text/css" height="244px" preserveAspectRatio="none" style="width:266px;height:244px;" version="1.1" viewBox="0 0 266 244" width="266px" zoomAndPan="magnify"><defs><filter height="300%" id="f4jus71makfi3" width="300%" x="-1" y="-1"><feGaussianBlur result="blurOut" stdDeviation="2.0"/><feColorMatrix in="blurOut" result="blurOut2" type="matrix" values="0 0 0 0 0 0 0 0 0 0 0 0 0 0 0 0 0 0 .4 0"/><feOffset dx="4.0" dy="4.0" in="blurOut2" result="blurOut3"/><feBlend in="SourceGraphic" in2="blurOut3" mode="normal"/></filter></defs><g><!--cluster Kafka--><path d="M22,70 C22,60 124.5,60 124.5,60 C124.5,60 227,60 227,70 L227,143 C227,153 124.5,153 124.5,153 C124.5,153 22,153 22,143 L22,70 " fill="#FFFFFF" filter="url(#f4jus71makfi3)" style="stroke: #000000; stroke-width: 1.5;"/><path d="M22,70 C22,80 124.5,80 124.5,80 C124.5,80 227,80 227,70 " fill="none" style="stroke: #000000; stroke-width: 1.5;"/><text fill="#000000" font-family="sans-serif" font-size="14" font-weight="bold" lengthAdjust="spacingAndGlyphs" textLength="44" x="102.5" y="94.9951">Kafka</text><!--entity Source--><path d="M43,111 L103,111 C108,111 108,124.1484 108,124.1484 C108,124.1484 108,137.2969 103,137.2969 L43,137.2969 C38,137.2969 38,124.1484 38,124.1484 C38,124.1484 38,111 43,111 " fill="#FEFECE" filter="url(#f4jus71makfi3)" style="stroke: #A80036; stroke-width: 1.5;"/><path d="M103,111 C98,111 98,124.1484 98,124.1484 C98,137.2969 103,137.2969 103,137.2969 " fill="none" style="stroke: #A80036; stroke-width: 1.5;"/><text fill="#000000" font-family="sans-serif" font-size="14" lengthAdjust="spacingAndGlyphs" textLength="50" x="43" y="128.9951">Source</text><!--entity Target--><path d="M148.75,111 L205.75,111 C210.75,111 210.75,124.1484 210.75,124.1484 C210.75,124.1484 210.75,137.2969 205.75,137.2969 L148.75,137.2969 C143.75,137.2969 143.75,124.1484 143.75,124.1484 C143.75,124.1484 143.75,111 148.75,111 " fill="#FEFECE" filter="url(#f4jus71makfi3)" style="stroke: #A80036; stroke-width: 1.5;"/><path d="M205.75,111 C200.75,111 200.75,124.1484 200.75,124.1484 C200.75,137.2969 205.75,137.2969 205.75,137.2969 " fill="none" style="stroke: #A80036; stroke-width: 1.5;"/><text fill="#000000" font-family="sans-serif" font-size="14" lengthAdjust="spacingAndGlyphs" textLength="47" x="148.75" y="128.9951">Target</text><!--entity Producer--><rect fill="#FEFECE" filter="url(#f4jus71makfi3)" height="36.2969" style="stroke: #A80036; stroke-width: 1.5;" width="84" x="31" y="8"/><rect fill="#FEFECE" height="5" style="stroke: #A80036; stroke-width: 1.5;" width="10" x="26" y="13"/><rect fill="#FEFECE" height="5" style="stroke: #A80036; stroke-width: 1.5;" width="10" x="26" y="34.2969"/><text fill="#000000" font-family="sans-serif" font-size="14" lengthAdjust="spacingAndGlyphs" textLength="64" x="41" y="30.9951">Producer</text><!--entity Transformer--><rect fill="#FEFECE" filter="url(#f4jus71makfi3)" height="36.2969" style="stroke: #A80036; stroke-width: 1.5;" width="109" x="18.75" y="197"/><rect fill="#FEFECE" height="5" style="stroke: #A80036; stroke-width: 1.5;" width="10" x="13.75" y="202"/><rect fill="#FEFECE" height="5" style="stroke: #A80036; stroke-width: 1.5;" width="10" x="13.75" y="223.2969"/><text fill="#000000" font-family="sans-serif" font-size="14" lengthAdjust="spacingAndGlyphs" textLength="89" x="28.75" y="219.9951">Transformer</text><!--entity Consumer--><rect fill="#FEFECE" filter="url(#f4jus71makfi3)" height="36.2969" style="stroke: #A80036; stroke-width: 1.5;" width="93" x="162.75" y="197"/><rect fill="#FEFECE" height="5" style="stroke: #A80036; stroke-width: 1.5;" width="10" x="157.75" y="202"/><rect fill="#FEFECE" height="5" style="stroke: #A80036; stroke-width: 1.5;" width="10" x="157.75" y="223.2969"/><text fill="#000000" font-family="sans-serif" font-size="14" lengthAdjust="spacingAndGlyphs" textLength="73" x="172.75" y="219.9951">Consumer</text><!--link Producer to Source--><path d="M73,44.163 C73,61.563 73,88.337 73,105.763 " fill="none" id="Producer-Source" style="stroke: #A80036; stroke-width: 1.0;"/><polygon fill="#A80036" points="73,110.851,77,101.851,73,105.851,69,101.851,73,110.851" style="stroke: #A80036; stroke-width: 1.0;"/><!--link Source to Transformer--><path d="M73,137.0029 C73,150.9347 73,174.2105 73,191.5309 " fill="none" id="Source-Transformer" style="stroke: #A80036; stroke-width: 1.0;"/><polygon fill="#A80036" points="73,196.698,77,187.698,73,191.698,69,187.698,73,196.698" style="stroke: #A80036; stroke-width: 1.0;"/><!--link Transformer to Target--><path d="M93.218,196.698 C112.308,180.3616 140.667,156.0923 158.996,140.4073 " fill="none" id="Transformer-Target" style="stroke: #A80036; stroke-width: 1.0;"/><polygon fill="#A80036" points="162.974,137.0029,153.5355,139.8162,159.1754,140.2541,158.7375,145.894,162.974,137.0029" style="stroke: #A80036; stroke-width: 1.0;"/><!--link Target to Consumer--><path d="M181.316,137.0029 C186.368,151.0549 194.838,174.6125 201.082,191.9775 " fill="none" id="Target-Consumer" style="stroke: #A80036; stroke-width: 1.0;"/><polygon fill="#A80036" points="202.779,196.698,203.4981,186.8754,201.0874,191.9929,195.9699,189.5821,202.779,196.698" style="stroke: #A80036; stroke-width: 1.0;"/><!--
@startuml

database Kafka {
queue Source
queue Target
}
component Producer
component Transformer
component Consumer

Producer -> Source
Source -> Transformer
Transformer -> Target
Target -> Consumer

@enduml

PlantUML version 1.2019.01(Sat Feb 09 18:32:04 MSK 2019)
(GPL source distribution)
Java Runtime: OpenJDK Runtime Environment
JVM: OpenJDK 64-Bit Server VM
Java Version: 1.8.0_191-b12
Operating System: Linux
OS Version: 3.10.0-957.1.3.el7.x86_64
Default Encoding: UTF-8
Language: en
Country: US
--></g></svg>